<svg width="308" height="201" viewBox="0 0 308 201"  preserveAspectRatio="none" fill="none" xmlns="http://www.w3.org/2000/svg">
<path d="M4.87393 113V68.6364H11.5675V87.9155H33.6843V68.6364H40.3995V113H33.6843V93.6559H11.5675V113H4.87393ZM63.6428 113.672C60.5234 113.672 57.8013 112.957 55.4762 111.527C53.1512 110.097 51.346 108.097 50.0607 105.527C48.7754 102.956 48.1328 99.9523 48.1328 96.5153C48.1328 93.0638 48.7754 90.0456 50.0607 87.4606C51.346 84.8756 53.1512 82.8683 55.4762 81.4386C57.8013 80.0089 60.5234 79.294 63.6428 79.294C66.7621 79.294 69.4843 80.0089 71.8093 81.4386C74.1344 82.8683 75.9395 84.8756 77.2248 87.4606C78.5101 90.0456 79.1527 93.0638 79.1527 96.5153C79.1527 99.9523 78.5101 102.956 77.2248 105.527C75.9395 108.097 74.1344 110.097 71.8093 111.527C69.4843 112.957 66.7621 113.672 63.6428 113.672ZM63.6644 108.234C65.6862 108.234 67.3614 107.7 68.69 106.631C70.0186 105.563 71.0006 104.14 71.636 102.364C72.2859 100.588 72.6108 98.6309 72.6108 96.4936C72.6108 94.3707 72.2859 92.4212 71.636 90.6449C71.0006 88.8542 70.0186 87.4173 68.69 86.3342C67.3614 85.2511 65.6862 84.7095 63.6644 84.7095C61.6282 84.7095 59.9386 85.2511 58.5955 86.3342C57.2669 87.4173 56.2777 88.8542 55.6278 90.6449C54.9924 92.4212 54.6747 94.3707 54.6747 96.4936C54.6747 98.6309 54.9924 100.588 55.6278 102.364C56.2777 104.14 57.2669 105.563 58.5955 106.631C59.9386 107.7 61.6282 108.234 63.6644 108.234ZM92.8593 68.6364V113H86.3824V68.6364H92.8593ZM101.573 113V79.7273H108.05V113H101.573ZM104.844 74.5934C103.717 74.5934 102.75 74.2179 101.941 73.467C101.147 72.7016 100.75 71.7918 100.75 70.7376C100.75 69.6689 101.147 68.7591 101.941 68.0082C102.75 67.2428 103.717 66.8601 104.844 66.8601C105.97 66.8601 106.931 67.2428 107.725 68.0082C108.533 68.7591 108.938 69.6689 108.938 70.7376C108.938 71.7918 108.533 72.7016 107.725 73.467C106.931 74.2179 105.97 74.5934 104.844 74.5934ZM129.219 113.65C126.533 113.65 124.136 112.964 122.027 111.592C119.933 110.206 118.287 108.234 117.088 105.678C115.904 103.108 115.312 100.025 115.312 96.4286C115.312 92.8327 115.911 89.7567 117.11 87.2006C118.323 84.6445 119.984 82.6877 122.092 81.3303C124.2 79.9728 126.591 79.294 129.262 79.294C131.327 79.294 132.988 79.6406 134.244 80.3338C135.515 81.0125 136.497 81.8068 137.19 82.7166C137.898 83.6264 138.447 84.4279 138.837 85.1211H139.227V68.6364H145.704V113H139.378V107.823H138.837C138.447 108.53 137.884 109.339 137.147 110.249C136.425 111.159 135.429 111.953 134.158 112.632C132.887 113.31 131.241 113.65 129.219 113.65ZM130.649 108.126C132.511 108.126 134.086 107.635 135.371 106.653C136.671 105.657 137.653 104.277 138.317 102.516C138.996 100.754 139.335 98.7031 139.335 96.3636C139.335 94.053 139.003 92.0312 138.339 90.2983C137.674 88.5653 136.699 87.2151 135.414 86.2475C134.129 85.2799 132.54 84.7962 130.649 84.7962C128.699 84.7962 127.074 85.3016 125.775 86.3125C124.475 87.3234 123.493 88.7025 122.829 90.4499C122.179 92.1973 121.854 94.1686 121.854 96.3636C121.854 98.5876 122.186 100.588 122.85 102.364C123.515 104.14 124.497 105.548 125.796 106.588C127.11 107.613 128.728 108.126 130.649 108.126ZM164.631 113.737C162.522 113.737 160.616 113.347 158.912 112.567C157.208 111.772 155.858 110.624 154.861 109.123C153.879 107.621 153.388 105.779 153.388 103.599C153.388 101.721 153.749 100.176 154.471 98.9631C155.193 97.75 156.168 96.7897 157.396 96.082C158.623 95.3744 159.995 94.8401 161.511 94.479C163.028 94.118 164.573 93.8436 166.147 93.6559C168.14 93.4248 169.757 93.2371 170.999 93.0927C172.241 92.9338 173.144 92.6811 173.707 92.3345C174.27 91.9879 174.552 91.4247 174.552 90.6449V90.4933C174.552 88.6014 174.018 87.1357 172.949 86.0959C171.895 85.0561 170.321 84.5362 168.227 84.5362C166.046 84.5362 164.327 85.02 163.071 85.9876C161.829 86.9407 160.97 88.0021 160.493 89.1719L154.406 87.7855C155.128 85.7637 156.183 84.1319 157.569 82.8899C158.97 81.6335 160.58 80.7237 162.4 80.1605C164.219 79.5829 166.133 79.294 168.14 79.294C169.469 79.294 170.877 79.4529 172.364 79.7706C173.866 80.0739 175.267 80.6371 176.566 81.4602C177.881 82.2834 178.956 83.4603 179.794 84.9911C180.632 86.5075 181.05 88.4787 181.05 90.9048V113H174.725V108.451H174.465C174.046 109.289 173.418 110.112 172.581 110.92C171.743 111.729 170.667 112.401 169.353 112.935C168.039 113.469 166.465 113.737 164.631 113.737ZM166.039 108.538C167.829 108.538 169.36 108.184 170.631 107.476C171.916 106.769 172.891 105.844 173.555 104.703C174.234 103.548 174.574 102.313 174.574 100.999V96.7102C174.342 96.9413 173.895 97.1579 173.23 97.3601C172.581 97.5478 171.837 97.7139 170.999 97.8583C170.162 97.9883 169.346 98.111 168.551 98.2266C167.757 98.3277 167.093 98.4143 166.559 98.4865C165.302 98.6454 164.154 98.9125 163.114 99.288C162.089 99.6635 161.266 100.205 160.645 100.913C160.038 101.606 159.735 102.53 159.735 103.685C159.735 105.288 160.327 106.501 161.511 107.325C162.696 108.133 164.205 108.538 166.039 108.538ZM192.58 125.477C191.612 125.477 190.732 125.398 189.937 125.239C189.143 125.095 188.551 124.936 188.161 124.762L189.721 119.455C190.905 119.773 191.959 119.91 192.883 119.867C193.807 119.824 194.623 119.477 195.331 118.827C196.053 118.177 196.689 117.116 197.237 115.643L198.039 113.433L185.865 79.7273H192.797L201.223 105.548H201.57L209.996 79.7273H216.95L203.238 117.441C202.602 119.174 201.794 120.639 200.812 121.838C199.83 123.051 198.66 123.961 197.302 124.567C195.945 125.174 194.371 125.477 192.58 125.477ZM34.1974 149.462H28.6577C28.4446 148.278 28.0481 147.236 27.468 146.337C26.888 145.437 26.1778 144.674 25.3374 144.046C24.4969 143.419 23.5559 142.945 22.5142 142.626C21.4844 142.306 20.3894 142.146 19.2294 142.146C17.1342 142.146 15.258 142.673 13.6009 143.727C11.9555 144.78 10.6534 146.325 9.6946 148.361C8.74763 150.397 8.27415 152.883 8.27415 155.818C8.27415 158.777 8.74763 161.275 9.6946 163.311C10.6534 165.347 11.9614 166.886 13.6186 167.928C15.2758 168.969 17.1402 169.49 19.2116 169.49C20.3598 169.49 21.4489 169.336 22.4787 169.028C23.5204 168.709 24.4614 168.241 25.3018 167.626C26.1423 167.01 26.8525 166.259 27.4325 165.371C28.0244 164.471 28.4328 163.441 28.6577 162.281L34.1974 162.299C33.9015 164.086 33.3274 165.732 32.4751 167.235C31.6347 168.727 30.5516 170.017 29.2259 171.106C27.9119 172.183 26.4086 173.018 24.7159 173.609C23.0232 174.201 21.1766 174.497 19.1761 174.497C16.0275 174.497 13.2221 173.751 10.7599 172.26C8.29782 170.757 6.35653 168.608 4.93608 165.815C3.52746 163.021 2.82315 159.689 2.82315 155.818C2.82315 151.936 3.53338 148.603 4.95384 145.822C6.37429 143.028 8.31558 140.886 10.7777 139.394C13.2398 137.891 16.0393 137.139 19.1761 137.139C21.1056 137.139 22.9048 137.417 24.5739 137.974C26.2547 138.518 27.764 139.323 29.1016 140.388C30.4392 141.442 31.5459 142.732 32.4219 144.259C33.2978 145.774 33.8897 147.509 34.1974 149.462ZM48.2733 174.604C46.545 174.604 44.9825 174.284 43.5858 173.645C42.189 172.994 41.0822 172.053 40.2654 170.822C39.4605 169.591 39.0581 168.081 39.0581 166.294C39.0581 164.755 39.354 163.489 39.9458 162.494C40.5377 161.5 41.3367 160.713 42.3429 160.133C43.349 159.553 44.4735 159.115 45.7164 158.819C46.9593 158.523 48.2259 158.298 49.5162 158.144C51.1497 157.955 52.4754 157.801 53.4934 157.683C54.5114 157.552 55.2512 157.345 55.7129 157.061C56.1745 156.777 56.4054 156.315 56.4054 155.676V155.552C56.4054 154.001 55.9674 152.8 55.0914 151.947C54.2273 151.095 52.9371 150.669 51.2207 150.669C49.4333 150.669 48.0247 151.066 46.9949 151.859C45.9769 152.64 45.2725 153.51 44.8819 154.469L39.8926 153.332C40.4844 151.675 41.3485 150.338 42.4849 149.32C43.6331 148.29 44.9529 147.544 46.4444 147.082C47.9359 146.609 49.5043 146.372 51.1497 146.372C52.2387 146.372 53.3928 146.502 54.612 146.763C55.8431 147.011 56.9913 147.473 58.0566 148.148C59.1338 148.822 60.0157 149.787 60.7022 151.042C61.3888 152.285 61.7321 153.901 61.7321 155.889V174H56.5474V170.271H56.3343C55.9911 170.958 55.4761 171.633 54.7896 172.295C54.103 172.958 53.2212 173.509 52.144 173.947C51.0668 174.385 49.7766 174.604 48.2733 174.604ZM49.4274 170.342C50.8952 170.342 52.1499 170.052 53.1916 169.472C54.2451 168.892 55.0441 168.135 55.5886 167.2C56.1449 166.253 56.4231 165.241 56.4231 164.163V160.648C56.2337 160.837 55.8668 161.015 55.3223 161.18C54.7896 161.334 54.18 161.47 53.4934 161.589C52.8069 161.695 52.1381 161.796 51.487 161.891C50.836 161.973 50.2915 162.045 49.8535 162.104C48.8237 162.234 47.8826 162.453 47.0304 162.761C46.1899 163.068 45.5152 163.512 45.0062 164.092C44.5091 164.661 44.2605 165.418 44.2605 166.365C44.2605 167.679 44.7458 168.673 45.7164 169.348C46.6871 170.011 47.9241 170.342 49.4274 170.342ZM74.1122 137.636V174H68.8033V137.636H74.1122ZM93.0087 174.55C90.3217 174.55 88.0075 173.976 86.0662 172.828C84.1368 171.668 82.6453 170.04 81.5918 167.945C80.5501 165.838 80.0293 163.37 80.0293 160.541C80.0293 157.748 80.5501 155.286 81.5918 153.155C82.6453 151.024 84.1131 149.361 85.9952 148.165C87.8891 146.97 90.1027 146.372 92.6358 146.372C94.1747 146.372 95.6661 146.627 97.1103 147.136C98.5544 147.645 99.8506 148.444 100.999 149.533C102.147 150.622 103.052 152.036 103.715 153.776C104.378 155.504 104.71 157.606 104.71 160.08V161.962H83.03V157.984H99.5073C99.5073 156.588 99.2232 155.351 98.655 154.273C98.0868 153.184 97.2878 152.326 96.258 151.699C95.24 151.071 94.0444 150.758 92.6713 150.758C91.1799 150.758 89.8778 151.125 88.7651 151.859C87.6642 152.581 86.812 153.528 86.2083 154.7C85.6164 155.86 85.3205 157.12 85.3205 158.482V161.589C85.3205 163.412 85.6401 164.962 86.2793 166.241C86.9303 167.519 87.8359 168.496 88.9959 169.17C90.156 169.833 91.5113 170.165 93.062 170.165C94.0681 170.165 94.9855 170.023 95.8141 169.739C96.6427 169.443 97.3588 169.005 97.9625 168.425C98.5662 167.845 99.0279 167.129 99.3475 166.276L104.372 167.182C103.97 168.661 103.248 169.958 102.206 171.07C101.176 172.171 99.8801 173.029 98.3176 173.645C96.767 174.249 94.9973 174.55 93.0087 174.55ZM115.909 157.807V174H110.6V146.727H115.696V151.166H116.033C116.661 149.722 117.643 148.562 118.981 147.686C120.33 146.81 122.029 146.372 124.077 146.372C125.935 146.372 127.563 146.763 128.96 147.544C130.356 148.313 131.439 149.462 132.209 150.989C132.978 152.516 133.363 154.404 133.363 156.653V174H128.054V157.292C128.054 155.315 127.539 153.77 126.509 152.658C125.479 151.533 124.065 150.971 122.266 150.971C121.035 150.971 119.94 151.237 118.981 151.77C118.034 152.303 117.282 153.084 116.726 154.114C116.181 155.132 115.909 156.363 115.909 157.807ZM150.692 174.533C148.491 174.533 146.526 173.97 144.798 172.846C143.081 171.71 141.732 170.094 140.749 167.999C139.779 165.892 139.293 163.364 139.293 160.417C139.293 157.469 139.785 154.948 140.767 152.853C141.761 150.758 143.123 149.154 144.851 148.041C146.579 146.929 148.538 146.372 150.728 146.372C152.421 146.372 153.782 146.656 154.812 147.224C155.853 147.781 156.658 148.432 157.227 149.178C157.807 149.923 158.256 150.58 158.576 151.148H158.896V137.636H164.205V174H159.02V169.756H158.576C158.256 170.336 157.795 170.999 157.191 171.745C156.599 172.491 155.782 173.142 154.741 173.698C153.699 174.254 152.35 174.533 150.692 174.533ZM151.864 170.005C153.391 170.005 154.682 169.603 155.735 168.798C156.8 167.981 157.605 166.85 158.15 165.406C158.706 163.962 158.984 162.281 158.984 160.364C158.984 158.47 158.712 156.812 158.168 155.392C157.623 153.972 156.824 152.865 155.771 152.072C154.717 151.279 153.415 150.882 151.864 150.882C150.266 150.882 148.935 151.296 147.869 152.125C146.804 152.954 145.999 154.084 145.455 155.516C144.922 156.949 144.656 158.564 144.656 160.364C144.656 162.187 144.928 163.826 145.472 165.282C146.017 166.738 146.822 167.892 147.887 168.744C148.964 169.585 150.29 170.005 151.864 170.005ZM179.719 174.604C177.99 174.604 176.428 174.284 175.031 173.645C173.634 172.994 172.528 172.053 171.711 170.822C170.906 169.591 170.503 168.081 170.503 166.294C170.503 164.755 170.799 163.489 171.391 162.494C171.983 161.5 172.782 160.713 173.788 160.133C174.794 159.553 175.919 159.115 177.162 158.819C178.405 158.523 179.671 158.298 180.961 158.144C182.595 157.955 183.921 157.801 184.939 157.683C185.957 157.552 186.697 157.345 187.158 157.061C187.62 156.777 187.851 156.315 187.851 155.676V155.552C187.851 154.001 187.413 152.8 186.537 151.947C185.673 151.095 184.382 150.669 182.666 150.669C180.879 150.669 179.47 151.066 178.44 151.859C177.422 152.64 176.718 153.51 176.327 154.469L171.338 153.332C171.93 151.675 172.794 150.338 173.93 149.32C175.078 148.29 176.398 147.544 177.89 147.082C179.381 146.609 180.95 146.372 182.595 146.372C183.684 146.372 184.838 146.502 186.057 146.763C187.288 147.011 188.437 147.473 189.502 148.148C190.579 148.822 191.461 149.787 192.148 151.042C192.834 152.285 193.177 153.901 193.177 155.889V174H187.993V170.271H187.78C187.436 170.958 186.921 171.633 186.235 172.295C185.548 172.958 184.666 173.509 183.589 173.947C182.512 174.385 181.222 174.604 179.719 174.604ZM180.873 170.342C182.34 170.342 183.595 170.052 184.637 169.472C185.69 168.892 186.489 168.135 187.034 167.2C187.59 166.253 187.868 165.241 187.868 164.163V160.648C187.679 160.837 187.312 161.015 186.768 161.18C186.235 161.334 185.625 161.47 184.939 161.589C184.252 161.695 183.583 161.796 182.932 161.891C182.281 161.973 181.737 162.045 181.299 162.104C180.269 162.234 179.328 162.453 178.476 162.761C177.635 163.068 176.961 163.512 176.452 164.092C175.954 164.661 175.706 165.418 175.706 166.365C175.706 167.679 176.191 168.673 177.162 169.348C178.132 170.011 179.369 170.342 180.873 170.342ZM200.249 174V146.727H205.38V151.06H205.664C206.161 149.592 207.037 148.438 208.292 147.597C209.558 146.745 210.991 146.319 212.589 146.319C212.92 146.319 213.311 146.331 213.761 146.354C214.222 146.378 214.583 146.408 214.844 146.443V151.521C214.631 151.462 214.252 151.397 213.707 151.326C213.163 151.243 212.618 151.202 212.074 151.202C210.819 151.202 209.701 151.468 208.718 152.001C207.747 152.522 206.978 153.25 206.41 154.185C205.842 155.108 205.558 156.161 205.558 157.345V174H200.249Z" fill="#3D67B7"/>
<path d="M181 51L216 3L259 51H234L285 91H252L305 145H243V198H219" stroke="#3D67B7" stroke-width="6" stroke-linecap="round" stroke-linejoin="round"/>
</svg>
